# xmcd CD database file
#
# Track frame offsets:
#	150
#	16094
#	35041
#	52738
#	67993
#	85871
#	96528
#	111090
#	126604
#	141103
#
# Disc length: 2099 seconds
#
# Revision: 0
# Processed by: cddbd v1.5.1PL0 Copyright (c) Steve Scherf et al.
# Submitted via: NeoAudio 9.9.9
#
DISCID=8608310a
DTITLE=Tom Lanza - Old Songs That Still Touch My Soul
DYEAR=1993
DGENRE=Country
TTITLE0=Only Jesus Can Satisfy Your Soul
TTITLE1=Release Me From My Sin
TTITLE2=Just A Closer Walk With Thee
TTITLE3=Welcome To My World
TTITLE4=When I Say Jesus
TTITLE5=Let's All Go Down To The River
TTITLE6=It Is No Secret
TTITLE7=Wasted Years
TTITLE8=Touching Jesus
TTITLE9=Come On Down
EXTD=YEAR: 1993
EXTT0=
EXTT1=
EXTT2=
EXTT3=
EXTT4=
EXTT5=
EXTT6=
EXTT7=
EXTT8=
EXTT9=
PLAYORDER=
